ffmpeg version N-107533-g247d513beb-20220726 Copyright (c) 2000-2022 the FFmpeg developers
  built with gcc 12.1.0 (crosstool-NG 1.25.0.55_3defb7b)
  configuration: --prefix=/ffbuild/prefix --pkg-config-flags=--static --pkg-config=pkg-config --cross-prefix=x86_64-w64-mingw32- --arch=x86_64 --target-os=mingw32 --enable-gpl --enable-version3 --disable-debug --disable-w32threads --enable-pthreads --enable-iconv --enable-libxml2 --enable-zlib --enable-libfreetype --enable-libfribidi --enable-gmp --enable-lzma --enable-fontconfig --enable-libvorbis --enable-opencl --disable-libpulse --enable-libvmaf --disable-libxcb --disable-xlib --enable-amf --enable-libaom --enable-libaribb24 --enable-avisynth --enable-libdav1d --enable-libdavs2 --disable-libfdk-aac --enable-ffnvcodec --enable-cuda-llvm --enable-frei0r --enable-libgme --enable-libass --enable-libbluray --enable-libjxl --enable-libmp3lame --enable-libopus --enable-librist --enable-libtheora --enable-libvpx --enable-libwebp --enable-lv2 --enable-libmfx --enable-libopencore-amrnb --enable-libopencore-amrwb --enable-libopenh264 --enable-libopenjpeg --enable-libopenmpt --enable-librav1e --enable-librubberband --enable-schannel --enable-sdl2 --enable-libsoxr --enable-libsrt --enable-libsvtav1 --enable-libtwolame --enable-libuavs3d --disable-libdrm --disable-vaapi --enable-libvidstab --enable-vulkan --enable-libshaderc --enable-libplacebo --enable-libx264 --enable-libx265 --enable-libxavs2 --enable-libxvid --enable-libzimg --enable-libzvbi --extra-cflags=-DLIBTWOLAME_STATIC --extra-cxxflags= --extra-ldflags=-pthread --extra-ldexeflags= --extra-libs=-lgomp --extra-version=20220726
  libavutil      57. 30.100 / 57. 30.100
  libavcodec     59. 39.100 / 59. 39.100
  libavformat    59. 29.100 / 59. 29.100
  libavdevice    59.  8.101 / 59.  8.101
  libavfilter     8. 46.100 /  8. 46.100
  libswscale      6.  8.101 /  6.  8.101
  libswresample   4.  8.100 /  4.  8.100
  libpostproc    56.  7.100 / 56.  7.100
Input #0, mov,mp4,m4a,3gp,3g2,mj2, from 'C:\Users\Administrator\Documents\PoCs\customerDockerWithAppServices\custom-docker-with-appservice\sample.mp4':
  Metadata:
    major_brand     : mp42
    minor_version   : 0
    compatible_brands: isommp42
    encoder         : Google
  Duration: 00:00:07.98, start: 0.000000, bitrate: 268 kb/s
  Stream #0:0[0x1](und): Video: h264 (Constrained Baseline) (avc1 / 0x31637661), yuv420p(tv, smpte170m/bt470bg/bt709, progressive), 178x234 [SAR 1:1 DAR 89:117], 72 kb/s, 30 fps, 30 tbr, 15360 tbn (default)
    Metadata:
      handler_name    : ISO Media file produced by Google Inc.
      vendor_id       : [0][0][0][0]
  Stream #0:1[0x2](und): Audio: aac (LC) (mp4a / 0x6134706D), 48000 Hz, stereo, fltp, 192 kb/s (default)
    Metadata:
      handler_name    : ISO Media file produced by Google Inc.
      vendor_id       : [0][0][0][0]
Stream mapping:
  Stream #0:0 -> #0:0 (h264 (native) -> mpeg4 (native))
  Stream #0:1 -> #0:1 (aac (native) -> mp3 (libmp3lame))
Press [q] to stop, [?] for help
Output #0, avi, to 'C:\Users\Administrator\Documents\PoCs\customerDockerWithAppServices\custom-docker-with-appservice\sample1.avi':
  Metadata:
    major_brand     : mp42
    minor_version   : 0
    compatible_brands: isommp42
    ISFT            : Lavf59.29.100
  Stream #0:0(und): Video: mpeg4 (FMP4 / 0x34504D46), yuv420p(tv, smpte170m/bt470bg/bt709, progressive), 178x234 [SAR 1:1 DAR 89:117], q=2-31, 200 kb/s, 30 fps, 30 tbn (default)
    Metadata:
      handler_name    : ISO Media file produced by Google Inc.
      vendor_id       : [0][0][0][0]
      encoder         : Lavc59.39.100 mpeg4
    Side data:
      cpb: bitrate max/min/avg: 0/0/200000 buffer size: 0 vbv_delay: N/A
  Stream #0:1(und): Audio: mp3 (U[0][0][0] / 0x0055), 48000 Hz, stereo, fltp (default)
    Metadata:
      handler_name    : ISO Media file produced by Google Inc.
      vendor_id       : [0][0][0][0]
      encoder         : Lavc59.39.100 libmp3lame
frame=    0 fps=0.0 q=2.0 size=       0kB time=00:00:00.20 bitrate=   0.0kbits/s speed=15.2x    frame=  238 fps=0.0 q=2.0 Lsize=     423kB time=00:00:07.96 bitrate= 434.5kbits/s speed=48.7x    
video:274kB audio:125kB subtitle:0kB other streams:0kB global headers:0kB muxing overhead: 5.838015%
